<mxfile host="Electron" modified="2024-12-20T16:26:25.331Z" agent="Mozilla/5.0 (Windows NT 10.0; Win64; x64) AppleWebKit/537.36 (KHTML, like Gecko) draw.io/24.4.8 Chrome/124.0.6367.207 Electron/30.0.6 Safari/537.36" etag="v2M5tzsHcNwWC0VrMTpN" version="24.4.8" type="device">
  <diagram name="Страница — 1" id="0RyuI174dtaSOxeJSNqM">
    <mxGraphModel dx="1098" dy="475" grid="0" gridSize="10" guides="1" tooltips="1" connect="1" arrows="1" fold="1" page="0" pageScale="1" pageWidth="1169" pageHeight="827" math="0" shadow="0">
      <root>
        <mxCell id="0" />
        <mxCell id="1" parent="0" />
        <mxCell id="l4MBHa-szNTVxbQTD737-9" value="" style="line;strokeWidth=4;html=1;perimeter=backbonePerimeter;points=[];outlineConnect=0;" parent="1" vertex="1">
          <mxGeometry x="172" y="301" width="991" height="10" as="geometry" />
        </mxCell>
        <mxCell id="l4MBHa-szNTVxbQTD737-11" style="edgeStyle=orthogonalEdgeStyle;rounded=0;orthogonalLoop=1;jettySize=auto;html=1;endArrow=open;endFill=0;strokeWidth=1;entryX=0.5;entryY=0;entryDx=0;entryDy=0;" parent="1" source="l4MBHa-szNTVxbQTD737-9" target="l4MBHa-szNTVxbQTD737-13" edge="1">
          <mxGeometry relative="1" as="geometry">
            <mxPoint x="295" y="351" as="targetPoint" />
            <mxPoint x="304" y="316" as="sourcePoint" />
            <Array as="points">
              <mxPoint x="295" y="336" />
              <mxPoint x="295" y="336" />
            </Array>
          </mxGeometry>
        </mxCell>
        <mxCell id="l4MBHa-szNTVxbQTD737-13" value="&lt;font style=&quot;font-size: 10px;&quot;&gt;Изучение главной страницы&lt;/font&gt;" style="rounded=1;whiteSpace=wrap;html=1;" parent="1" vertex="1">
          <mxGeometry x="235" y="353" width="120" height="52" as="geometry" />
        </mxCell>
        <mxCell id="l4MBHa-szNTVxbQTD737-17" style="edgeStyle=orthogonalEdgeStyle;rounded=0;orthogonalLoop=1;jettySize=auto;html=1;endArrow=open;endFill=0;strokeWidth=1;exitX=0.5;exitY=1;exitDx=0;exitDy=0;" parent="1" source="l4MBHa-szNTVxbQTD737-13" target="l4MBHa-szNTVxbQTD737-18" edge="1">
          <mxGeometry relative="1" as="geometry">
            <mxPoint x="295" y="442" as="targetPoint" />
            <mxPoint x="295" y="416" as="sourcePoint" />
            <Array as="points" />
          </mxGeometry>
        </mxCell>
        <mxCell id="l4MBHa-szNTVxbQTD737-18" value="" style="line;strokeWidth=4;html=1;perimeter=backbonePerimeter;points=[];outlineConnect=0;" parent="1" vertex="1">
          <mxGeometry x="-78.5" y="448" width="747" height="10" as="geometry" />
        </mxCell>
        <mxCell id="l4MBHa-szNTVxbQTD737-19" value="&lt;font style=&quot;font-size: 10px;&quot;&gt;Изучение общей информации о филиалах&lt;/font&gt;" style="rounded=1;whiteSpace=wrap;html=1;" parent="1" vertex="1">
          <mxGeometry x="235" y="501" width="120" height="52" as="geometry" />
        </mxCell>
        <mxCell id="l4MBHa-szNTVxbQTD737-20" value="&lt;font style=&quot;font-size: 10px;&quot;&gt;Изучение подвала сайта&lt;/font&gt;" style="rounded=1;whiteSpace=wrap;html=1;" parent="1" vertex="1">
          <mxGeometry x="109" y="501" width="120" height="52" as="geometry" />
        </mxCell>
        <mxCell id="l4MBHa-szNTVxbQTD737-21" value="&lt;font style=&quot;font-size: 10px;&quot;&gt;Переход на главный сайт предприятия по гиперссылкам&lt;/font&gt;" style="rounded=1;whiteSpace=wrap;html=1;" parent="1" vertex="1">
          <mxGeometry x="363" y="501" width="120" height="52" as="geometry" />
        </mxCell>
        <mxCell id="l4MBHa-szNTVxbQTD737-22" value="&lt;font style=&quot;font-size: 10px;&quot;&gt;Изучение краткой контактной информации о филиалах&lt;/font&gt;" style="rounded=1;whiteSpace=wrap;html=1;" parent="1" vertex="1">
          <mxGeometry x="491" y="501" width="120" height="52" as="geometry" />
        </mxCell>
        <mxCell id="l4MBHa-szNTVxbQTD737-23" value="&lt;font style=&quot;font-size: 10px;&quot;&gt;Изучение шапки сайта&lt;/font&gt;" style="rounded=1;whiteSpace=wrap;html=1;" parent="1" vertex="1">
          <mxGeometry x="-17" y="501" width="120" height="52" as="geometry" />
        </mxCell>
        <mxCell id="l4MBHa-szNTVxbQTD737-24" style="edgeStyle=orthogonalEdgeStyle;rounded=0;orthogonalLoop=1;jettySize=auto;html=1;endArrow=open;endFill=0;strokeWidth=1;entryX=0.5;entryY=0;entryDx=0;entryDy=0;" parent="1" source="l4MBHa-szNTVxbQTD737-18" target="l4MBHa-szNTVxbQTD737-23" edge="1">
          <mxGeometry relative="1" as="geometry">
            <mxPoint x="42.660000000000025" y="494" as="targetPoint" />
            <mxPoint x="43" y="462" as="sourcePoint" />
            <Array as="points">
              <mxPoint x="43" y="452" />
              <mxPoint x="43" y="452" />
            </Array>
          </mxGeometry>
        </mxCell>
        <mxCell id="l4MBHa-szNTVxbQTD737-25" style="edgeStyle=orthogonalEdgeStyle;rounded=0;orthogonalLoop=1;jettySize=auto;html=1;endArrow=open;endFill=0;strokeWidth=1;entryX=0.5;entryY=0;entryDx=0;entryDy=0;" parent="1" source="l4MBHa-szNTVxbQTD737-18" target="l4MBHa-szNTVxbQTD737-20" edge="1">
          <mxGeometry relative="1" as="geometry">
            <mxPoint x="168.76" y="497" as="targetPoint" />
            <mxPoint x="169" y="461" as="sourcePoint" />
            <Array as="points">
              <mxPoint x="169" y="480" />
              <mxPoint x="169" y="480" />
            </Array>
          </mxGeometry>
        </mxCell>
        <mxCell id="l4MBHa-szNTVxbQTD737-26" style="edgeStyle=orthogonalEdgeStyle;rounded=0;orthogonalLoop=1;jettySize=auto;html=1;endArrow=open;endFill=0;strokeWidth=1;entryX=0.5;entryY=0;entryDx=0;entryDy=0;" parent="1" source="l4MBHa-szNTVxbQTD737-18" target="l4MBHa-szNTVxbQTD737-19" edge="1">
          <mxGeometry relative="1" as="geometry">
            <mxPoint x="294.76" y="498" as="targetPoint" />
            <mxPoint x="295" y="462" as="sourcePoint" />
            <Array as="points" />
          </mxGeometry>
        </mxCell>
        <mxCell id="l4MBHa-szNTVxbQTD737-27" style="edgeStyle=orthogonalEdgeStyle;rounded=0;orthogonalLoop=1;jettySize=auto;html=1;endArrow=open;endFill=0;strokeWidth=1;entryX=0.5;entryY=0;entryDx=0;entryDy=0;" parent="1" source="l4MBHa-szNTVxbQTD737-18" target="l4MBHa-szNTVxbQTD737-21" edge="1">
          <mxGeometry relative="1" as="geometry">
            <mxPoint x="335" y="491" as="targetPoint" />
            <mxPoint x="335" y="445" as="sourcePoint" />
            <Array as="points">
              <mxPoint x="423" y="468" />
              <mxPoint x="423" y="468" />
            </Array>
          </mxGeometry>
        </mxCell>
        <mxCell id="l4MBHa-szNTVxbQTD737-28" style="edgeStyle=orthogonalEdgeStyle;rounded=0;orthogonalLoop=1;jettySize=auto;html=1;endArrow=open;endFill=0;strokeWidth=1;entryX=0.5;entryY=0;entryDx=0;entryDy=0;" parent="1" source="l4MBHa-szNTVxbQTD737-18" target="l4MBHa-szNTVxbQTD737-22" edge="1">
          <mxGeometry relative="1" as="geometry">
            <mxPoint x="345" y="501" as="targetPoint" />
            <mxPoint x="345" y="455" as="sourcePoint" />
            <Array as="points">
              <mxPoint x="551" y="497" />
              <mxPoint x="551" y="497" />
            </Array>
          </mxGeometry>
        </mxCell>
        <mxCell id="l4MBHa-szNTVxbQTD737-29" style="edgeStyle=orthogonalEdgeStyle;rounded=0;orthogonalLoop=1;jettySize=auto;html=1;endArrow=open;endFill=0;strokeWidth=1;entryX=0.5;entryY=0;entryDx=0;entryDy=0;exitX=0.5;exitY=1;exitDx=0;exitDy=0;" parent="1" source="l4MBHa-szNTVxbQTD737-23" target="l4MBHa-szNTVxbQTD737-30" edge="1">
          <mxGeometry relative="1" as="geometry">
            <mxPoint x="43" y="601" as="targetPoint" />
            <mxPoint x="43" y="563" as="sourcePoint" />
            <Array as="points" />
          </mxGeometry>
        </mxCell>
        <mxCell id="l4MBHa-szNTVxbQTD737-30" value="&lt;font style=&quot;font-size: 10px;&quot;&gt;Поиск информации с помощью ввода слова в строку&amp;nbsp;&lt;span style=&quot;color: rgb(51, 51, 51); font-family: &amp;quot;YS Text&amp;quot;, -apple-system, BlinkMacSystemFont, Arial, Helvetica, sans-serif; font-size: 16px; text-align: start;&quot;&gt;«&lt;/span&gt;поиск&lt;/font&gt;&lt;span style=&quot;color: rgb(51, 51, 51); font-family: &amp;quot;YS Text&amp;quot;, -apple-system, BlinkMacSystemFont, Arial, Helvetica, sans-serif; font-size: 16px; text-align: start;&quot;&gt;»&lt;/span&gt;" style="rounded=1;whiteSpace=wrap;html=1;" parent="1" vertex="1">
          <mxGeometry x="-17" y="599" width="120" height="52" as="geometry" />
        </mxCell>
        <mxCell id="l4MBHa-szNTVxbQTD737-33" style="edgeStyle=orthogonalEdgeStyle;rounded=0;orthogonalLoop=1;jettySize=auto;html=1;endArrow=open;endFill=0;strokeWidth=1;exitX=0.5;exitY=1;exitDx=0;exitDy=0;" parent="1" source="l4MBHa-szNTVxbQTD737-30" target="l4MBHa-szNTVxbQTD737-37" edge="1">
          <mxGeometry relative="1" as="geometry">
            <mxPoint x="43" y="688" as="targetPoint" />
            <mxPoint x="43" y="663" as="sourcePoint" />
            <Array as="points">
              <mxPoint x="43" y="687" />
              <mxPoint x="43" y="687" />
            </Array>
          </mxGeometry>
        </mxCell>
        <mxCell id="l4MBHa-szNTVxbQTD737-36" style="edgeStyle=orthogonalEdgeStyle;rounded=0;orthogonalLoop=1;jettySize=auto;html=1;endArrow=open;endFill=0;strokeWidth=1;exitX=0.5;exitY=1;exitDx=0;exitDy=0;" parent="1" source="l4MBHa-szNTVxbQTD737-20" target="l4MBHa-szNTVxbQTD737-37" edge="1">
          <mxGeometry relative="1" as="geometry">
            <mxPoint x="169" y="675" as="targetPoint" />
            <mxPoint x="169" y="570" as="sourcePoint" />
            <Array as="points">
              <mxPoint x="169" y="672" />
              <mxPoint x="169" y="672" />
            </Array>
          </mxGeometry>
        </mxCell>
        <mxCell id="l4MBHa-szNTVxbQTD737-37" value="" style="line;strokeWidth=4;html=1;perimeter=backbonePerimeter;points=[];outlineConnect=0;" parent="1" vertex="1">
          <mxGeometry x="-76" y="694" width="747" height="10" as="geometry" />
        </mxCell>
        <mxCell id="l4MBHa-szNTVxbQTD737-38" style="edgeStyle=orthogonalEdgeStyle;rounded=0;orthogonalLoop=1;jettySize=auto;html=1;endArrow=open;endFill=0;strokeWidth=1;exitX=0.5;exitY=1;exitDx=0;exitDy=0;" parent="1" source="l4MBHa-szNTVxbQTD737-19" target="l4MBHa-szNTVxbQTD737-37" edge="1">
          <mxGeometry relative="1" as="geometry">
            <mxPoint x="295" y="679" as="targetPoint" />
            <mxPoint x="295" y="581" as="sourcePoint" />
            <Array as="points">
              <mxPoint x="295" y="668" />
              <mxPoint x="295" y="668" />
            </Array>
          </mxGeometry>
        </mxCell>
        <mxCell id="l4MBHa-szNTVxbQTD737-39" style="edgeStyle=orthogonalEdgeStyle;rounded=0;orthogonalLoop=1;jettySize=auto;html=1;endArrow=open;endFill=0;strokeWidth=1;exitX=0.5;exitY=1;exitDx=0;exitDy=0;" parent="1" edge="1">
          <mxGeometry relative="1" as="geometry">
            <mxPoint x="422.71000000000004" y="697" as="targetPoint" />
            <mxPoint x="422.71000000000004" y="553" as="sourcePoint" />
            <Array as="points">
              <mxPoint x="422.71000000000004" y="672" />
              <mxPoint x="422.71000000000004" y="672" />
            </Array>
          </mxGeometry>
        </mxCell>
        <mxCell id="l4MBHa-szNTVxbQTD737-40" style="edgeStyle=orthogonalEdgeStyle;rounded=0;orthogonalLoop=1;jettySize=auto;html=1;endArrow=open;endFill=0;strokeWidth=1;exitX=0.5;exitY=1;exitDx=0;exitDy=0;" parent="1" edge="1">
          <mxGeometry relative="1" as="geometry">
            <mxPoint x="550.71" y="697" as="targetPoint" />
            <mxPoint x="550.71" y="553" as="sourcePoint" />
            <Array as="points">
              <mxPoint x="550.71" y="672" />
              <mxPoint x="550.71" y="672" />
            </Array>
          </mxGeometry>
        </mxCell>
        <mxCell id="l4MBHa-szNTVxbQTD737-41" style="edgeStyle=orthogonalEdgeStyle;rounded=0;orthogonalLoop=1;jettySize=auto;html=1;endArrow=open;endFill=0;strokeWidth=1;entryX=0.5;entryY=0;entryDx=0;entryDy=0;" parent="1" target="l4MBHa-szNTVxbQTD737-42" edge="1">
          <mxGeometry relative="1" as="geometry">
            <mxPoint x="996" y="351" as="targetPoint" />
            <mxPoint x="996" y="307" as="sourcePoint" />
            <Array as="points">
              <mxPoint x="996" y="336" />
              <mxPoint x="996" y="336" />
            </Array>
          </mxGeometry>
        </mxCell>
        <mxCell id="l4MBHa-szNTVxbQTD737-42" value="&lt;font style=&quot;font-size: 10px;&quot;&gt;Изучение страницы филиала&lt;/font&gt;" style="rounded=1;whiteSpace=wrap;html=1;" parent="1" vertex="1">
          <mxGeometry x="936" y="353" width="120" height="52" as="geometry" />
        </mxCell>
        <mxCell id="l4MBHa-szNTVxbQTD737-43" style="edgeStyle=orthogonalEdgeStyle;rounded=0;orthogonalLoop=1;jettySize=auto;html=1;endArrow=open;endFill=0;strokeWidth=1;exitX=0.5;exitY=1;exitDx=0;exitDy=0;" parent="1" source="l4MBHa-szNTVxbQTD737-42" edge="1">
          <mxGeometry relative="1" as="geometry">
            <mxPoint x="996" y="451" as="targetPoint" />
            <mxPoint x="996" y="416" as="sourcePoint" />
            <Array as="points" />
          </mxGeometry>
        </mxCell>
        <mxCell id="l4MBHa-szNTVxbQTD737-44" value="" style="line;strokeWidth=4;html=1;perimeter=backbonePerimeter;points=[];outlineConnect=0;" parent="1" vertex="1">
          <mxGeometry x="685" y="448" width="620" height="8.3" as="geometry" />
        </mxCell>
        <mxCell id="l4MBHa-szNTVxbQTD737-45" value="&lt;font style=&quot;font-size: 10px;&quot;&gt;Изучение открытых вакансий&lt;/font&gt;" style="rounded=1;whiteSpace=wrap;html=1;" parent="1" vertex="1">
          <mxGeometry x="998.5" y="501" width="120" height="52" as="geometry" />
        </mxCell>
        <mxCell id="l4MBHa-szNTVxbQTD737-46" value="&lt;font style=&quot;font-size: 10px;&quot;&gt;Прочтение новостей&lt;/font&gt;" style="rounded=1;whiteSpace=wrap;html=1;" parent="1" vertex="1">
          <mxGeometry x="872.5" y="501" width="120" height="52" as="geometry" />
        </mxCell>
        <mxCell id="l4MBHa-szNTVxbQTD737-47" value="&lt;font style=&quot;font-size: 10px;&quot;&gt;Просмотр контактной информации&lt;/font&gt;" style="rounded=1;whiteSpace=wrap;html=1;" parent="1" vertex="1">
          <mxGeometry x="1126.5" y="501" width="120" height="52" as="geometry" />
        </mxCell>
        <mxCell id="l4MBHa-szNTVxbQTD737-49" value="&lt;font style=&quot;font-size: 10px;&quot;&gt;Просмотр подробной информации о филиалае&lt;/font&gt;" style="rounded=1;whiteSpace=wrap;html=1;" parent="1" vertex="1">
          <mxGeometry x="746.5" y="501" width="120" height="52" as="geometry" />
        </mxCell>
        <mxCell id="l4MBHa-szNTVxbQTD737-50" style="edgeStyle=orthogonalEdgeStyle;rounded=0;orthogonalLoop=1;jettySize=auto;html=1;endArrow=open;endFill=0;strokeWidth=1;entryX=0.5;entryY=0;entryDx=0;entryDy=0;" parent="1" source="l4MBHa-szNTVxbQTD737-44" target="l4MBHa-szNTVxbQTD737-49" edge="1">
          <mxGeometry relative="1" as="geometry">
            <mxPoint x="806.1600000000001" y="494" as="targetPoint" />
            <mxPoint x="806.5" y="462" as="sourcePoint" />
            <Array as="points">
              <mxPoint x="806.5" y="452" />
              <mxPoint x="806.5" y="452" />
            </Array>
          </mxGeometry>
        </mxCell>
        <mxCell id="l4MBHa-szNTVxbQTD737-51" style="edgeStyle=orthogonalEdgeStyle;rounded=0;orthogonalLoop=1;jettySize=auto;html=1;endArrow=open;endFill=0;strokeWidth=1;entryX=0.5;entryY=0;entryDx=0;entryDy=0;" parent="1" source="l4MBHa-szNTVxbQTD737-44" target="l4MBHa-szNTVxbQTD737-46" edge="1">
          <mxGeometry relative="1" as="geometry">
            <mxPoint x="932.26" y="497" as="targetPoint" />
            <mxPoint x="932.5" y="461" as="sourcePoint" />
            <Array as="points">
              <mxPoint x="932.5" y="480" />
              <mxPoint x="932.5" y="480" />
            </Array>
          </mxGeometry>
        </mxCell>
        <mxCell id="l4MBHa-szNTVxbQTD737-52" style="edgeStyle=orthogonalEdgeStyle;rounded=0;orthogonalLoop=1;jettySize=auto;html=1;endArrow=open;endFill=0;strokeWidth=1;entryX=0.5;entryY=0;entryDx=0;entryDy=0;" parent="1" source="l4MBHa-szNTVxbQTD737-44" target="l4MBHa-szNTVxbQTD737-45" edge="1">
          <mxGeometry relative="1" as="geometry">
            <mxPoint x="1058.26" y="498" as="targetPoint" />
            <mxPoint x="1058.5" y="462" as="sourcePoint" />
            <Array as="points">
              <mxPoint x="1059" y="479" />
            </Array>
          </mxGeometry>
        </mxCell>
        <mxCell id="l4MBHa-szNTVxbQTD737-53" style="edgeStyle=orthogonalEdgeStyle;rounded=0;orthogonalLoop=1;jettySize=auto;html=1;endArrow=open;endFill=0;strokeWidth=1;entryX=0.5;entryY=0;entryDx=0;entryDy=0;" parent="1" source="l4MBHa-szNTVxbQTD737-44" target="l4MBHa-szNTVxbQTD737-47" edge="1">
          <mxGeometry relative="1" as="geometry">
            <mxPoint x="1098.5" y="491" as="targetPoint" />
            <mxPoint x="1098.5" y="445" as="sourcePoint" />
            <Array as="points">
              <mxPoint x="1186.5" y="468" />
              <mxPoint x="1186.5" y="468" />
            </Array>
          </mxGeometry>
        </mxCell>
        <mxCell id="l4MBHa-szNTVxbQTD737-55" style="edgeStyle=orthogonalEdgeStyle;rounded=0;orthogonalLoop=1;jettySize=auto;html=1;endArrow=open;endFill=0;strokeWidth=1;exitX=0.5;exitY=1;exitDx=0;exitDy=0;" parent="1" source="l4MBHa-szNTVxbQTD737-49" target="l4MBHa-szNTVxbQTD737-59" edge="1">
          <mxGeometry relative="1" as="geometry">
            <mxPoint x="806.5000000000002" y="599" as="targetPoint" />
            <mxPoint x="806.5" y="563" as="sourcePoint" />
            <Array as="points">
              <mxPoint x="807" y="673" />
              <mxPoint x="807" y="673" />
            </Array>
          </mxGeometry>
        </mxCell>
        <mxCell id="l4MBHa-szNTVxbQTD737-58" style="edgeStyle=orthogonalEdgeStyle;rounded=0;orthogonalLoop=1;jettySize=auto;html=1;endArrow=open;endFill=0;strokeWidth=1;exitX=0.5;exitY=1;exitDx=0;exitDy=0;" parent="1" source="l4MBHa-szNTVxbQTD737-46" target="l4MBHa-szNTVxbQTD737-59" edge="1">
          <mxGeometry relative="1" as="geometry">
            <mxPoint x="932.5" y="675" as="targetPoint" />
            <mxPoint x="932.5" y="570" as="sourcePoint" />
            <Array as="points">
              <mxPoint x="932.5" y="672" />
              <mxPoint x="932.5" y="672" />
            </Array>
          </mxGeometry>
        </mxCell>
        <mxCell id="l4MBHa-szNTVxbQTD737-59" value="" style="line;strokeWidth=4;html=1;perimeter=backbonePerimeter;points=[];outlineConnect=0;" parent="1" vertex="1">
          <mxGeometry x="687.5" y="694" width="622.5" height="9.06" as="geometry" />
        </mxCell>
        <mxCell id="l4MBHa-szNTVxbQTD737-61" style="edgeStyle=orthogonalEdgeStyle;rounded=0;orthogonalLoop=1;jettySize=auto;html=1;endArrow=open;endFill=0;strokeWidth=1;exitX=0.5;exitY=1;exitDx=0;exitDy=0;" parent="1" edge="1">
          <mxGeometry relative="1" as="geometry">
            <mxPoint x="1186.21" y="697" as="targetPoint" />
            <mxPoint x="1186.21" y="553" as="sourcePoint" />
            <Array as="points">
              <mxPoint x="1186.21" y="672" />
              <mxPoint x="1186.21" y="672" />
            </Array>
          </mxGeometry>
        </mxCell>
        <mxCell id="l4MBHa-szNTVxbQTD737-63" style="edgeStyle=orthogonalEdgeStyle;rounded=0;orthogonalLoop=1;jettySize=auto;html=1;endArrow=open;endFill=0;strokeWidth=1;entryX=0.5;entryY=0;entryDx=0;entryDy=0;exitX=0.5;exitY=1;exitDx=0;exitDy=0;" parent="1" target="l4MBHa-szNTVxbQTD737-64" edge="1">
          <mxGeometry relative="1" as="geometry">
            <mxPoint x="1058.5" y="601" as="targetPoint" />
            <mxPoint x="1059" y="553" as="sourcePoint" />
            <Array as="points">
              <mxPoint x="1059" y="577" />
              <mxPoint x="1059" y="577" />
            </Array>
          </mxGeometry>
        </mxCell>
        <mxCell id="l4MBHa-szNTVxbQTD737-64" value="&lt;font style=&quot;font-size: 10px;&quot;&gt;Переход на сайт с вакансией для подобного изучения&lt;/font&gt;" style="rounded=1;whiteSpace=wrap;html=1;" parent="1" vertex="1">
          <mxGeometry x="998.5" y="599" width="120" height="52" as="geometry" />
        </mxCell>
        <mxCell id="l4MBHa-szNTVxbQTD737-65" style="edgeStyle=orthogonalEdgeStyle;rounded=0;orthogonalLoop=1;jettySize=auto;html=1;endArrow=open;endFill=0;strokeWidth=1;exitX=0.5;exitY=1;exitDx=0;exitDy=0;" parent="1" source="l4MBHa-szNTVxbQTD737-64" edge="1">
          <mxGeometry relative="1" as="geometry">
            <mxPoint x="1059" y="697" as="targetPoint" />
            <mxPoint x="1058.5" y="663" as="sourcePoint" />
            <Array as="points">
              <mxPoint x="1058.5" y="687" />
              <mxPoint x="1058.5" y="687" />
            </Array>
          </mxGeometry>
        </mxCell>
        <mxCell id="l4MBHa-szNTVxbQTD737-66" style="edgeStyle=orthogonalEdgeStyle;rounded=0;orthogonalLoop=1;jettySize=auto;html=1;endArrow=open;endFill=0;strokeWidth=1;entryX=0.5;entryY=0;entryDx=0;entryDy=0;exitX=0.5;exitY=1;exitDx=0;exitDy=0;" parent="1" edge="1">
          <mxGeometry relative="1" as="geometry">
            <mxPoint x="294.65999999999997" y="746" as="targetPoint" />
            <mxPoint x="294.65999999999997" y="700" as="sourcePoint" />
            <Array as="points" />
          </mxGeometry>
        </mxCell>
        <mxCell id="l4MBHa-szNTVxbQTD737-67" style="edgeStyle=orthogonalEdgeStyle;rounded=0;orthogonalLoop=1;jettySize=auto;html=1;endArrow=open;endFill=0;strokeWidth=1;entryX=0.5;entryY=0;entryDx=0;entryDy=0;exitX=0.5;exitY=1;exitDx=0;exitDy=0;" parent="1" edge="1">
          <mxGeometry relative="1" as="geometry">
            <mxPoint x="998.5" y="746" as="targetPoint" />
            <mxPoint x="998.5" y="700" as="sourcePoint" />
            <Array as="points" />
          </mxGeometry>
        </mxCell>
        <mxCell id="l4MBHa-szNTVxbQTD737-68" value="" style="line;strokeWidth=4;html=1;perimeter=backbonePerimeter;points=[];outlineConnect=0;" parent="1" vertex="1">
          <mxGeometry x="172" y="742" width="991" height="10" as="geometry" />
        </mxCell>
        <mxCell id="l4MBHa-szNTVxbQTD737-69" style="edgeStyle=orthogonalEdgeStyle;rounded=0;orthogonalLoop=1;jettySize=auto;html=1;endArrow=open;endFill=0;strokeWidth=1;entryX=0.5;entryY=0;entryDx=0;entryDy=0;exitX=0.5;exitY=1;exitDx=0;exitDy=0;endSize=6;startSize=6;" parent="1" edge="1">
          <mxGeometry relative="1" as="geometry">
            <mxPoint x="677" y="794" as="targetPoint" />
            <mxPoint x="677" y="748" as="sourcePoint" />
            <Array as="points" />
          </mxGeometry>
        </mxCell>
        <mxCell id="l4MBHa-szNTVxbQTD737-73" style="edgeStyle=orthogonalEdgeStyle;rounded=0;orthogonalLoop=1;jettySize=auto;html=1;endArrow=open;endFill=0;strokeWidth=1;entryX=0.5;entryY=0;entryDx=0;entryDy=0;" parent="1" source="l4MBHa-szNTVxbQTD737-74" edge="1">
          <mxGeometry relative="1" as="geometry">
            <mxPoint x="680.03" y="305" as="targetPoint" />
            <mxPoint x="680.03" y="259" as="sourcePoint" />
            <Array as="points">
              <mxPoint x="680" y="260" />
            </Array>
          </mxGeometry>
        </mxCell>
        <mxCell id="l4MBHa-szNTVxbQTD737-75" value="" style="edgeStyle=orthogonalEdgeStyle;rounded=0;orthogonalLoop=1;jettySize=auto;html=1;endArrow=open;endFill=0;strokeWidth=1;entryDx=0;entryDy=0;" parent="1" target="l4MBHa-szNTVxbQTD737-74" edge="1">
          <mxGeometry relative="1" as="geometry">
            <mxPoint x="680.03" y="305" as="targetPoint" />
            <mxPoint x="680.03" y="259" as="sourcePoint" />
            <Array as="points" />
          </mxGeometry>
        </mxCell>
        <mxCell id="l4MBHa-szNTVxbQTD737-74" value="" style="shape=waypoint;sketch=0;fillStyle=solid;size=6;pointerEvents=1;points=[];fillColor=none;resizable=0;rotatable=0;perimeter=centerPerimeter;snapToPoint=1;strokeWidth=8;" parent="1" vertex="1">
          <mxGeometry x="671" y="242" width="20" height="20" as="geometry" />
        </mxCell>
        <mxCell id="l4MBHa-szNTVxbQTD737-78" value="" style="shape=waypoint;sketch=0;fillStyle=solid;size=6;pointerEvents=1;points=[];fillColor=none;resizable=0;rotatable=0;perimeter=centerPerimeter;snapToPoint=1;strokeWidth=8;" parent="1" vertex="1">
          <mxGeometry x="667" y="798" width="20" height="20" as="geometry" />
        </mxCell>
        <mxCell id="l4MBHa-szNTVxbQTD737-80" value="&lt;span style=&quot;color: rgba(0, 0, 0, 0); font-family: monospace; font-size: 0px; text-align: start; text-wrap: nowrap;&quot;&gt;%3CmxGraphModel%3E%3Croot%3E%3CmxCell%20id%3D%220%22%2F%3E%3CmxCell%20id%3D%221%22%20parent%3D%220%22%2F%3E%3CmxCell%20id%3D%222%22%20value%3D%22%22%20style%3D%22ellipse%3BwhiteSpace%3Dwrap%3Bhtml%3D1%3BfillColor%3Dnone%3B%22%20vertex%3D%221%22%20parent%3D%221%22%3E%3CmxGeometry%20x%3D%22663%22%20y%3D%22794%22%20width%3D%2228%22%20height%3D%2228%22%20as%3D%22geometry%22%2F%3E%3C%2FmxCell%3E%3C%2Froot%3E%3C%2FmxGraphModel%3E&lt;/span&gt;" style="ellipse;whiteSpace=wrap;html=1;fillColor=none;" parent="1" vertex="1">
          <mxGeometry x="663" y="794" width="28" height="28" as="geometry" />
        </mxCell>
      </root>
    </mxGraphModel>
  </diagram>
</mxfile>
